# xmcd CD database file
#
# Track frame offsets:
#	150
#	10650
#	21968
#	30681
#	39415
#	49284
#	61457
#	73638
#	85885
#	96716
#
# Disc length: 1449 seconds
#
# Revision: 0
# Processed by: cddbd v1.5.1PL0 Copyright (c) Steve Scherf et al.
# Submitted via: CDex 1.51
#
DISCID=8405a70a
DTITLE=Johnny Cash - Vintage Vaults Volume 1
DYEAR=2004
DGENRE=Country
TTITLE0=Hey! Porter
TTITLE1=Cry, Cry, Cry
TTITLE2=Guess Things Happen That Way
TTITLE3=Wreck Of The Old '97
TTITLE4=Down The Street To 301
TTITLE5=Wide Open Road
TTITLE6=Doin' My Time
TTITLE7=Thanks A Lot
TTITLE8=Cold, Cold Heart
TTITLE9=You're The Nearest Thing To Heaven
EXTD=YEAR: 2004
EXTT0=
EXTT1=
EXTT2=
EXTT3=
EXTT4=
EXTT5=
EXTT6=
EXTT7=
EXTT8=
EXTT9=
PLAYORDER=
